<svg width="219" height="42" viewBox="0 0 219 42" fill="none" xmlns="http://www.w3.org/2000/svg">
<rect y="2" width="40" height="40" fill="#E9E9E9"/>
<rect x="3" width="40" height="40" fill="white"/>
<path d="M56.925 8.145L57.758 7.228V11.638L57.324 11.085H61.188V12.555H57.324L57.758 12.009V16.447L56.925 15.53H61.965V17H55.903V6.675H61.965V8.145H56.925ZM65.7033 6.059V17H63.8903V6.059H65.7033ZM67.5511 17V9.566H69.3711V17H67.5511ZM68.4681 8.194C68.1694 8.194 67.9081 8.11467 67.6841 7.956C67.4648 7.79267 67.3551 7.56633 67.3551 7.277C67.3551 6.99233 67.4648 6.77067 67.6841 6.612C67.9081 6.45333 68.1694 6.374 68.4681 6.374C68.7621 6.374 69.0188 6.45333 69.2381 6.612C69.4574 6.77067 69.5671 6.99233 69.5671 7.277C69.5671 7.56633 69.4574 7.79267 69.2381 7.956C69.0188 8.11467 68.7621 8.194 68.4681 8.194ZM71.8815 13.878V12.569H77.0825L76.8725 12.919C76.8725 12.891 76.8725 12.8607 76.8725 12.828C76.8725 12.7907 76.8725 12.7603 76.8725 12.737C76.8725 12.415 76.8002 12.114 76.6555 11.834C76.5108 11.5493 76.2915 11.3207 75.9975 11.148C75.7035 10.9707 75.3302 10.882 74.8775 10.882C74.4295 10.882 74.0398 10.9777 73.7085 11.169C73.3818 11.3557 73.1275 11.6263 72.9455 11.981C72.7682 12.3357 72.6795 12.7603 72.6795 13.255C72.6795 13.7637 72.7658 14.2023 72.9385 14.571C73.1112 14.935 73.3632 15.215 73.6945 15.411C74.0305 15.6023 74.4388 15.698 74.9195 15.698C75.2462 15.698 75.5285 15.6677 75.7665 15.607C76.0045 15.5463 76.1982 15.4647 76.3475 15.362C76.5015 15.2547 76.6158 15.1403 76.6905 15.019C76.7698 14.8977 76.8165 14.7763 76.8305 14.655H78.6645C78.6365 14.9677 78.5315 15.2733 78.3495 15.572C78.1722 15.866 77.9225 16.1343 77.6005 16.377C77.2785 16.615 76.8865 16.8063 76.4245 16.951C75.9672 17.091 75.4445 17.161 74.8565 17.161C74.0585 17.161 73.3608 16.9977 72.7635 16.671C72.1662 16.3443 71.6995 15.8893 71.3635 15.306C71.0322 14.7227 70.8665 14.0553 70.8665 13.304C70.8665 12.534 71.0345 11.8597 71.3705 11.281C71.7112 10.7023 72.1825 10.252 72.7845 9.93C73.3865 9.60333 74.0772 9.44 74.8565 9.44C75.6592 9.44 76.3522 9.60333 76.9355 9.93C77.5235 10.2567 77.9762 10.7117 78.2935 11.295C78.6108 11.8737 78.7695 12.548 78.7695 13.318C78.7695 13.416 78.7672 13.521 78.7625 13.633C78.7578 13.745 78.7508 13.8267 78.7415 13.878H71.8815ZM81.5328 15.502H85.6978V17H79.5448V15.579L83.6258 11.001L83.6608 11.064H79.6988V9.566H85.6208V10.987L81.5678 15.551L81.5328 15.502ZM87.5495 13.878V12.569H92.7505L92.5405 12.919C92.5405 12.891 92.5405 12.8607 92.5405 12.828C92.5405 12.7907 92.5405 12.7603 92.5405 12.737C92.5405 12.415 92.4681 12.114 92.3235 11.834C92.1788 11.5493 91.9595 11.3207 91.6655 11.148C91.3715 10.9707 90.9981 10.882 90.5455 10.882C90.0975 10.882 89.7078 10.9777 89.3765 11.169C89.0498 11.3557 88.7955 11.6263 88.6135 11.981C88.4361 12.3357 88.3475 12.7603 88.3475 13.255C88.3475 13.7637 88.4338 14.2023 88.6065 14.571C88.7791 14.935 89.0311 15.215 89.3625 15.411C89.6985 15.6023 90.1068 15.698 90.5875 15.698C90.9141 15.698 91.1965 15.6677 91.4345 15.607C91.6725 15.5463 91.8661 15.4647 92.0155 15.362C92.1695 15.2547 92.2838 15.1403 92.3585 15.019C92.4378 14.8977 92.4845 14.7763 92.4985 14.655H94.3325C94.3045 14.9677 94.1995 15.2733 94.0175 15.572C93.8401 15.866 93.5905 16.1343 93.2685 16.377C92.9465 16.615 92.5545 16.8063 92.0925 16.951C91.6351 17.091 91.1125 17.161 90.5245 17.161C89.7265 17.161 89.0288 16.9977 88.4315 16.671C87.8341 16.3443 87.3675 15.8893 87.0315 15.306C86.7001 14.7227 86.5345 14.0553 86.5345 13.304C86.5345 12.534 86.7025 11.8597 87.0385 11.281C87.3791 10.7023 87.8505 10.252 88.4525 9.93C89.0545 9.60333 89.7451 9.44 90.5245 9.44C91.3271 9.44 92.0201 9.60333 92.6035 9.93C93.1915 10.2567 93.6441 10.7117 93.9615 11.295C94.2788 11.8737 94.4375 12.548 94.4375 13.318C94.4375 13.416 94.4351 13.521 94.4305 13.633C94.4258 13.745 94.4188 13.8267 94.4095 13.878H87.5495ZM95.9552 17V9.566H97.7963V12.037L97.3693 11.799C97.4159 11.477 97.5023 11.1737 97.6283 10.889C97.7543 10.5997 97.9223 10.3477 98.1323 10.133C98.3423 9.91367 98.5966 9.74333 98.8953 9.622C99.1939 9.50067 99.5346 9.44 99.9173 9.44C100.221 9.44 100.459 9.46333 100.631 9.51C100.809 9.552 100.918 9.587 100.96 9.615L100.624 11.302C100.578 11.2693 100.482 11.2297 100.337 11.183C100.197 11.1317 100.008 11.106 99.7703 11.106C99.3923 11.106 99.0749 11.1713 98.8183 11.302C98.5663 11.428 98.3656 11.6007 98.2163 11.82C98.0669 12.0347 97.9596 12.2727 97.8943 12.534C97.8289 12.7907 97.7963 13.0473 97.7963 13.304V17H95.9552ZM113.755 13.283C113.755 13.7217 113.674 14.1673 113.51 14.62C113.347 15.0727 113.097 15.4927 112.761 15.88C112.43 16.2627 112.01 16.5707 111.501 16.804C110.993 17.0373 110.395 17.154 109.709 17.154C108.781 17.154 107.987 16.9277 107.329 16.475C106.676 16.0177 106.177 15.39 105.831 14.592C105.491 13.794 105.32 12.877 105.32 11.841C105.32 10.8003 105.491 9.881 105.831 9.083C106.177 8.285 106.676 7.65967 107.329 7.207C107.987 6.75433 108.781 6.528 109.709 6.528C110.479 6.528 111.137 6.675 111.683 6.969C112.229 7.263 112.666 7.641 112.992 8.103C113.319 8.565 113.538 9.048 113.65 9.552C113.72 9.846 113.755 10.126 113.755 10.392H111.9C111.9 10.2567 111.891 10.1167 111.872 9.972C111.821 9.61733 111.702 9.29533 111.515 9.006C111.333 8.712 111.091 8.481 110.787 8.313C110.484 8.14033 110.125 8.054 109.709 8.054C109.215 8.054 108.778 8.19167 108.4 8.467C108.027 8.74233 107.733 9.16 107.518 9.72C107.304 10.28 107.196 10.987 107.196 11.841C107.196 12.6857 107.304 13.3903 107.518 13.955C107.733 14.5197 108.027 14.942 108.4 15.222C108.778 15.502 109.215 15.642 109.709 15.642C110.064 15.642 110.377 15.5767 110.647 15.446C110.918 15.3153 111.147 15.1403 111.333 14.921C111.52 14.697 111.66 14.445 111.753 14.165C111.851 13.885 111.9 13.591 111.9 13.283H113.755ZM117.849 17.154C117.294 17.154 116.806 17.0677 116.386 16.895C115.966 16.7177 115.637 16.4633 115.399 16.132C115.161 15.8007 115.042 15.4017 115.042 14.935C115.042 14.4263 115.18 14.0087 115.455 13.682C115.735 13.3507 116.111 13.0963 116.582 12.919C117.053 12.737 117.576 12.6203 118.15 12.569C118.999 12.485 119.592 12.4057 119.928 12.331C120.269 12.2517 120.439 12.1257 120.439 11.953C120.439 11.9483 120.439 11.946 120.439 11.946C120.439 11.9413 120.439 11.939 120.439 11.939C120.439 11.6123 120.292 11.3603 119.998 11.183C119.704 11.0057 119.289 10.917 118.752 10.917C118.187 10.917 117.753 11.0173 117.45 11.218C117.151 11.414 117.002 11.7267 117.002 12.156H115.182C115.182 11.5727 115.336 11.0803 115.644 10.679C115.957 10.273 116.384 9.965 116.925 9.755C117.466 9.545 118.08 9.44 118.766 9.44C119.405 9.44 119.991 9.53567 120.523 9.727C121.055 9.91833 121.482 10.2077 121.804 10.595C122.126 10.9823 122.287 11.4653 122.287 12.044C122.287 12.142 122.287 12.24 122.287 12.338C122.287 12.436 122.287 12.534 122.287 12.632V15.432C122.287 15.6093 122.292 15.7843 122.301 15.957C122.315 16.125 122.341 16.2767 122.378 16.412C122.425 16.5613 122.481 16.6873 122.546 16.79C122.611 16.8927 122.663 16.9627 122.7 17H120.88C120.847 16.9673 120.801 16.9043 120.74 16.811C120.684 16.713 120.633 16.601 120.586 16.475C120.539 16.335 120.504 16.1857 120.481 16.027C120.458 15.8637 120.446 15.684 120.446 15.488L120.81 15.74C120.67 16.0247 120.455 16.2743 120.166 16.489C119.881 16.699 119.541 16.8623 119.144 16.979C118.747 17.0957 118.316 17.154 117.849 17.154ZM118.297 15.705C118.68 15.705 119.034 15.6397 119.361 15.509C119.688 15.3783 119.951 15.1777 120.152 14.907C120.353 14.6317 120.453 14.2793 120.453 13.85V12.856L120.901 13.36C120.602 13.472 120.243 13.5653 119.823 13.64C119.403 13.71 118.978 13.766 118.549 13.808C117.998 13.8593 117.583 13.955 117.303 14.095C117.028 14.235 116.89 14.4637 116.89 14.781C116.89 15.089 117.007 15.32 117.24 15.474C117.473 15.628 117.826 15.705 118.297 15.705ZM126.999 17.154C126.556 17.154 126.134 17.105 125.732 17.007C125.336 16.909 124.981 16.762 124.668 16.566C124.36 16.37 124.115 16.1273 123.933 15.838C123.756 15.544 123.667 15.2057 123.667 14.823C123.667 14.795 123.667 14.767 123.667 14.739C123.667 14.711 123.667 14.6853 123.667 14.662H125.501C125.501 14.6853 125.501 14.7063 125.501 14.725C125.501 14.739 125.501 14.76 125.501 14.788C125.501 15.0913 125.639 15.32 125.914 15.474C126.194 15.6233 126.575 15.698 127.055 15.698C127.317 15.698 127.562 15.67 127.79 15.614C128.024 15.558 128.21 15.4717 128.35 15.355C128.495 15.2383 128.567 15.089 128.567 14.907C128.567 14.613 128.416 14.403 128.112 14.277C127.814 14.151 127.342 14.0367 126.698 13.934C126.344 13.8733 125.994 13.7917 125.648 13.689C125.303 13.5863 124.988 13.4487 124.703 13.276C124.423 13.1033 124.197 12.8887 124.024 12.632C123.856 12.3753 123.772 12.0627 123.772 11.694C123.772 11.204 123.917 10.7933 124.206 10.462C124.5 10.126 124.892 9.87167 125.382 9.699C125.877 9.52633 126.421 9.44 127.013 9.44C127.583 9.44 128.112 9.53333 128.602 9.72C129.092 9.90667 129.487 10.175 129.785 10.525C130.089 10.875 130.24 11.2973 130.24 11.792C130.24 11.8107 130.24 11.8317 130.24 11.855C130.24 11.8737 130.24 11.89 130.24 11.904H128.42C128.42 11.89 128.42 11.876 128.42 11.862C128.42 11.848 128.42 11.8317 128.42 11.813C128.42 11.5983 128.353 11.4233 128.217 11.288C128.082 11.1527 127.907 11.0523 127.692 10.987C127.478 10.9217 127.251 10.889 127.013 10.889C126.803 10.889 126.586 10.9123 126.362 10.959C126.138 11.001 125.952 11.078 125.802 11.19C125.653 11.2973 125.578 11.449 125.578 11.645C125.578 11.8317 125.655 11.9833 125.809 12.1C125.963 12.2167 126.178 12.3147 126.453 12.394C126.729 12.4687 127.046 12.5363 127.405 12.597C127.746 12.653 128.089 12.73 128.434 12.828C128.784 12.926 129.104 13.0567 129.393 13.22C129.683 13.3833 129.916 13.598 130.093 13.864C130.275 14.1253 130.366 14.4497 130.366 14.837C130.366 15.2477 130.273 15.5977 130.086 15.887C129.9 16.1763 129.645 16.4167 129.323 16.608C129.006 16.7947 128.647 16.9323 128.245 17.021C127.844 17.1097 127.429 17.154 126.999 17.154ZM135.219 17.14C134.953 17.14 134.682 17.1143 134.407 17.063C134.132 17.0117 133.88 16.916 133.651 16.776C133.422 16.636 133.238 16.4307 133.098 16.16C132.958 15.8893 132.888 15.5323 132.888 15.089C132.888 14.9863 132.888 14.8837 132.888 14.781C132.888 14.6737 132.888 14.564 132.888 14.452V11.036H131.131V9.566H131.845C132.088 9.566 132.279 9.55667 132.419 9.538C132.559 9.51467 132.662 9.46333 132.727 9.384C132.792 9.30467 132.834 9.181 132.853 9.013C132.876 8.84033 132.888 8.60233 132.888 8.299V7.116H134.736V9.566H136.948V11.036H134.736V14.018C134.736 14.1067 134.736 14.1953 134.736 14.284C134.736 14.368 134.736 14.4497 134.736 14.529C134.736 14.8743 134.778 15.152 134.862 15.362C134.946 15.572 135.144 15.677 135.457 15.677C135.606 15.677 135.746 15.663 135.877 15.635C136.012 15.607 136.113 15.579 136.178 15.551V16.993C136.089 17.0257 135.961 17.0583 135.793 17.091C135.625 17.1237 135.434 17.14 135.219 17.14ZM138.338 17V9.566H140.179V12.037L139.752 11.799C139.799 11.477 139.885 11.1737 140.011 10.889C140.137 10.5997 140.305 10.3477 140.515 10.133C140.725 9.91367 140.979 9.74333 141.278 9.622C141.577 9.50067 141.917 9.44 142.3 9.44C142.603 9.44 142.841 9.46333 143.014 9.51C143.191 9.552 143.301 9.587 143.343 9.615L143.007 11.302C142.96 11.2693 142.865 11.2297 142.72 11.183C142.58 11.1317 142.391 11.106 142.153 11.106C141.775 11.106 141.458 11.1713 141.201 11.302C140.949 11.428 140.748 11.6007 140.599 11.82C140.45 12.0347 140.342 12.2727 140.277 12.534C140.212 12.7907 140.179 13.0473 140.179 13.304V17H138.338ZM148.021 17.147C147.237 17.147 146.547 16.9837 145.949 16.657C145.352 16.3257 144.883 15.8683 144.542 15.285C144.206 14.7017 144.038 14.0343 144.038 13.283C144.038 12.527 144.206 11.862 144.542 11.288C144.883 10.7093 145.352 10.2567 145.949 9.93C146.547 9.60333 147.237 9.44 148.021 9.44C148.805 9.44 149.496 9.60333 150.093 9.93C150.691 10.2567 151.157 10.7093 151.493 11.288C151.834 11.862 152.004 12.527 152.004 13.283C152.004 14.0343 151.834 14.7017 151.493 15.285C151.157 15.8683 150.691 16.3257 150.093 16.657C149.496 16.9837 148.805 17.147 148.021 17.147ZM148.021 15.642C148.446 15.642 148.817 15.544 149.134 15.348C149.452 15.152 149.699 14.879 149.876 14.529C150.054 14.1743 150.142 13.759 150.142 13.283C150.142 12.807 150.054 12.3963 149.876 12.051C149.699 11.701 149.452 11.4303 149.134 11.239C148.817 11.0477 148.446 10.952 148.021 10.952C147.601 10.952 147.23 11.0477 146.908 11.239C146.591 11.4303 146.344 11.701 146.166 12.051C145.989 12.3963 145.9 12.807 145.9 13.283C145.9 13.759 145.989 14.1743 146.166 14.529C146.344 14.879 146.591 15.152 146.908 15.348C147.23 15.544 147.601 15.642 148.021 15.642Z" fill="white"/>
<path d="M56.518 25.23L57.106 24.546V28.482L56.698 28.11H60.292V29.19H56.698L57.106 28.794V33H55.81V24.15H60.826V25.23H56.518ZM61.9223 33V26.628H63.2243V28.662L62.8763 28.506C62.9043 28.246 62.9703 27.998 63.0743 27.762C63.1783 27.526 63.3163 27.316 63.4883 27.132C63.6643 26.944 63.8803 26.796 64.1363 26.688C64.3923 26.58 64.6883 26.526 65.0243 26.526C65.2803 26.526 65.4863 26.546 65.6423 26.586C65.8023 26.626 65.9003 26.658 65.9363 26.682L65.6603 27.906C65.6203 27.878 65.5383 27.842 65.4143 27.798C65.2943 27.754 65.1263 27.732 64.9103 27.732C64.5823 27.732 64.3103 27.79 64.0943 27.906C63.8783 28.022 63.7063 28.176 63.5783 28.368C63.4503 28.56 63.3583 28.77 63.3023 28.998C63.2503 29.222 63.2243 29.448 63.2243 29.676V33H61.9223ZM67.3296 30.27V29.256H72.0216L71.8416 29.556C71.8416 29.532 71.8416 29.508 71.8416 29.484C71.8416 29.456 71.8416 29.432 71.8416 29.412C71.8416 29.088 71.7716 28.79 71.6316 28.518C71.4916 28.242 71.2816 28.022 71.0016 27.858C70.7256 27.69 70.3796 27.606 69.9636 27.606C69.5476 27.606 69.1816 27.696 68.8656 27.876C68.5536 28.052 68.3096 28.304 68.1336 28.632C67.9616 28.956 67.8756 29.346 67.8756 29.802C67.8756 30.266 67.9596 30.666 68.1276 31.002C68.2956 31.334 68.5376 31.59 68.8536 31.77C69.1696 31.95 69.5476 32.04 69.9876 32.04C70.2956 32.04 70.5616 32.01 70.7856 31.95C71.0136 31.886 71.1996 31.802 71.3436 31.698C71.4916 31.594 71.6036 31.482 71.6796 31.362C71.7556 31.238 71.7996 31.116 71.8116 30.996H73.1076C73.0836 31.256 72.9976 31.514 72.8496 31.77C72.7056 32.022 72.4996 32.252 72.2316 32.46C71.9676 32.664 71.6436 32.828 71.2596 32.952C70.8796 33.072 70.4416 33.132 69.9456 33.132C69.2816 33.132 68.6996 32.992 68.1996 32.712C67.6996 32.432 67.3096 32.044 67.0296 31.548C66.7496 31.048 66.6096 30.476 66.6096 29.832C66.6096 29.176 66.7516 28.6 67.0356 28.104C67.3196 27.608 67.7136 27.222 68.2176 26.946C68.7216 26.666 69.2996 26.526 69.9516 26.526C70.6156 26.526 71.1896 26.666 71.6736 26.946C72.1616 27.226 72.5376 27.612 72.8016 28.104C73.0656 28.596 73.1976 29.162 73.1976 29.802C73.1976 29.878 73.1956 29.966 73.1916 30.066C73.1876 30.166 73.1816 30.234 73.1736 30.27H67.3296ZM75.1109 30.27V29.256H79.8029L79.6229 29.556C79.6229 29.532 79.6229 29.508 79.6229 29.484C79.6229 29.456 79.6229 29.432 79.6229 29.412C79.6229 29.088 79.5529 28.79 79.4129 28.518C79.2729 28.242 79.0629 28.022 78.7829 27.858C78.5069 27.69 78.1609 27.606 77.7449 27.606C77.3289 27.606 76.9629 27.696 76.6469 27.876C76.3349 28.052 76.0909 28.304 75.9149 28.632C75.7429 28.956 75.6569 29.346 75.6569 29.802C75.6569 30.266 75.7409 30.666 75.9089 31.002C76.0769 31.334 76.3189 31.59 76.6349 31.77C76.9509 31.95 77.3289 32.04 77.7689 32.04C78.0769 32.04 78.3429 32.01 78.5669 31.95C78.7949 31.886 78.9809 31.802 79.1249 31.698C79.2729 31.594 79.3849 31.482 79.4609 31.362C79.5369 31.238 79.5809 31.116 79.5929 30.996H80.8889C80.8649 31.256 80.7789 31.514 80.6309 31.77C80.4869 32.022 80.2809 32.252 80.0129 32.46C79.7489 32.664 79.4249 32.828 79.0409 32.952C78.6609 33.072 78.2229 33.132 77.7269 33.132C77.0629 33.132 76.4809 32.992 75.9809 32.712C75.4809 32.432 75.0909 32.044 74.8109 31.548C74.5309 31.048 74.3909 30.476 74.3909 29.832C74.3909 29.176 74.5329 28.6 74.8169 28.104C75.1009 27.608 75.4949 27.222 75.9989 26.946C76.5029 26.666 77.0809 26.526 77.7329 26.526C78.3969 26.526 78.9709 26.666 79.4549 26.946C79.9429 27.226 80.3189 27.612 80.5829 28.104C80.8469 28.596 80.9789 29.162 80.9789 29.802C80.9789 29.878 80.9769 29.966 80.9729 30.066C80.9689 30.166 80.9629 30.234 80.9549 30.27H75.1109ZM83.8041 23.622V33H82.5201V23.622H83.8041ZM87.7553 33.126C87.2753 33.126 86.8533 33.05 86.4893 32.898C86.1293 32.746 85.8493 32.528 85.6493 32.244C85.4493 31.96 85.3493 31.618 85.3493 31.218C85.3493 30.79 85.4613 30.436 85.6853 30.156C85.9133 29.876 86.2253 29.66 86.6213 29.508C87.0213 29.352 87.4753 29.25 87.9833 29.202C88.7393 29.126 89.2713 29.052 89.5793 28.98C89.8913 28.908 90.0473 28.79 90.0473 28.626C90.0473 28.622 90.0473 28.618 90.0473 28.614C90.0473 28.29 89.9093 28.044 89.6333 27.876C89.3573 27.708 88.9633 27.624 88.4513 27.624C87.9113 27.624 87.4933 27.72 87.1973 27.912C86.9053 28.1 86.7593 28.4 86.7593 28.812H85.4813C85.4813 28.324 85.6073 27.91 85.8593 27.57C86.1153 27.23 86.4673 26.972 86.9153 26.796C87.3633 26.616 87.8773 26.526 88.4573 26.526C88.9893 26.526 89.4733 26.608 89.9093 26.772C90.3493 26.932 90.6993 27.172 90.9593 27.492C91.2193 27.812 91.3493 28.21 91.3493 28.686C91.3493 28.77 91.3493 28.854 91.3493 28.938C91.3493 29.018 91.3493 29.1 91.3493 29.184V31.728C91.3493 31.876 91.3553 32.02 91.3673 32.16C91.3793 32.296 91.4013 32.418 91.4333 32.526C91.4693 32.65 91.5113 32.752 91.5593 32.832C91.6113 32.912 91.6533 32.968 91.6853 33H90.3893C90.3653 32.976 90.3293 32.926 90.2813 32.85C90.2373 32.77 90.1973 32.678 90.1613 32.574C90.1253 32.474 90.0973 32.36 90.0773 32.232C90.0613 32.1 90.0533 31.958 90.0533 31.806L90.2933 31.974C90.1733 32.206 89.9913 32.408 89.7473 32.58C89.5073 32.752 89.2173 32.886 88.8773 32.982C88.5413 33.078 88.1673 33.126 87.7553 33.126ZM88.0253 32.046C88.3973 32.046 88.7353 31.988 89.0393 31.872C89.3473 31.752 89.5933 31.572 89.7773 31.332C89.9613 31.088 90.0533 30.782 90.0533 30.414V29.358L90.3593 29.76C90.1033 29.86 89.7893 29.942 89.4173 30.006C89.0493 30.066 88.6693 30.116 88.2773 30.156C87.7373 30.204 87.3313 30.298 87.0593 30.438C86.7873 30.574 86.6513 30.802 86.6513 31.122C86.6513 31.43 86.7633 31.662 86.9873 31.818C87.2153 31.97 87.5613 32.046 88.0253 32.046ZM97.4661 33V30.06C97.4661 29.888 97.4661 29.742 97.4661 29.622C97.4661 29.502 97.4661 29.39 97.4661 29.286C97.4661 28.974 97.4181 28.7 97.3221 28.464C97.2261 28.224 97.0681 28.038 96.8481 27.906C96.6281 27.77 96.3341 27.702 95.9661 27.702C95.6421 27.702 95.3481 27.782 95.0841 27.942C94.8241 28.102 94.6161 28.32 94.4601 28.596C94.3081 28.868 94.2321 29.178 94.2321 29.526L93.6741 29.25C93.6741 28.734 93.7961 28.272 94.0401 27.864C94.2841 27.452 94.6101 27.126 95.0181 26.886C95.4301 26.646 95.8801 26.526 96.3681 26.526C96.8721 26.526 97.3021 26.624 97.6581 26.82C98.0181 27.012 98.2921 27.288 98.4801 27.648C98.6721 28.004 98.7681 28.43 98.7681 28.926C98.7681 29.11 98.7681 29.314 98.7681 29.538C98.7681 29.762 98.7681 29.978 98.7681 30.186V33H97.4661ZM92.9301 33V26.628H94.2321V33H92.9301ZM103.497 33.126C102.857 33.126 102.283 32.992 101.775 32.724C101.271 32.452 100.873 32.066 100.581 31.566C100.293 31.066 100.149 30.478 100.149 29.802C100.149 29.126 100.293 28.544 100.581 28.056C100.873 27.564 101.271 27.186 101.775 26.922C102.283 26.658 102.857 26.526 103.497 26.526C103.981 26.526 104.411 26.6 104.787 26.748C105.163 26.892 105.481 27.084 105.741 27.324C106.001 27.564 106.199 27.828 106.335 28.116C106.471 28.404 106.539 28.692 106.539 28.98C106.539 28.984 106.539 28.99 106.539 28.998C106.539 29.006 106.539 29.014 106.539 29.022H105.249C105.249 29.002 105.247 28.98 105.243 28.956C105.239 28.928 105.235 28.902 105.231 28.878C105.199 28.642 105.107 28.432 104.955 28.248C104.803 28.064 104.603 27.918 104.355 27.81C104.107 27.702 103.817 27.648 103.485 27.648C103.121 27.648 102.785 27.728 102.477 27.888C102.173 28.044 101.929 28.282 101.745 28.602C101.561 28.922 101.469 29.322 101.469 29.802C101.469 30.282 101.559 30.686 101.739 31.014C101.923 31.338 102.167 31.584 102.471 31.752C102.779 31.92 103.117 32.004 103.485 32.004C103.881 32.004 104.205 31.944 104.457 31.824C104.709 31.7 104.899 31.536 105.027 31.332C105.155 31.124 105.229 30.9 105.249 30.66H106.539C106.539 30.948 106.473 31.24 106.341 31.536C106.209 31.828 106.015 32.094 105.759 32.334C105.503 32.574 105.185 32.766 104.805 32.91C104.429 33.054 103.993 33.126 103.497 33.126ZM108.439 30.27V29.256H113.131L112.951 29.556C112.951 29.532 112.951 29.508 112.951 29.484C112.951 29.456 112.951 29.432 112.951 29.412C112.951 29.088 112.881 28.79 112.741 28.518C112.601 28.242 112.391 28.022 112.111 27.858C111.835 27.69 111.489 27.606 111.073 27.606C110.657 27.606 110.291 27.696 109.975 27.876C109.663 28.052 109.419 28.304 109.243 28.632C109.071 28.956 108.985 29.346 108.985 29.802C108.985 30.266 109.069 30.666 109.237 31.002C109.405 31.334 109.647 31.59 109.963 31.77C110.279 31.95 110.657 32.04 111.097 32.04C111.405 32.04 111.671 32.01 111.895 31.95C112.123 31.886 112.309 31.802 112.453 31.698C112.601 31.594 112.713 31.482 112.789 31.362C112.865 31.238 112.909 31.116 112.921 30.996H114.217C114.193 31.256 114.107 31.514 113.959 31.77C113.815 32.022 113.609 32.252 113.341 32.46C113.077 32.664 112.753 32.828 112.369 32.952C111.989 33.072 111.551 33.132 111.055 33.132C110.391 33.132 109.809 32.992 109.309 32.712C108.809 32.432 108.419 32.044 108.139 31.548C107.859 31.048 107.719 30.476 107.719 29.832C107.719 29.176 107.861 28.6 108.145 28.104C108.429 27.608 108.823 27.222 109.327 26.946C109.831 26.666 110.409 26.526 111.061 26.526C111.725 26.526 112.299 26.666 112.783 26.946C113.271 27.226 113.647 27.612 113.911 28.104C114.175 28.596 114.307 29.162 114.307 29.802C114.307 29.878 114.305 29.966 114.301 30.066C114.297 30.166 114.291 30.234 114.283 30.27H108.439ZM115.758 33V26.628H117.06V28.662L116.712 28.506C116.74 28.246 116.806 27.998 116.91 27.762C117.014 27.526 117.152 27.316 117.324 27.132C117.5 26.944 117.716 26.796 117.972 26.688C118.228 26.58 118.524 26.526 118.86 26.526C119.116 26.526 119.322 26.546 119.478 26.586C119.638 26.626 119.736 26.658 119.772 26.682L119.496 27.906C119.456 27.878 119.374 27.842 119.25 27.798C119.13 27.754 118.962 27.732 118.746 27.732C118.418 27.732 118.146 27.79 117.93 27.906C117.714 28.022 117.542 28.176 117.414 28.368C117.286 28.56 117.194 28.77 117.138 28.998C117.086 29.222 117.06 29.448 117.06 29.676V33H115.758ZM125.081 33H123.779V24.15H126.443C127.123 24.15 127.693 24.278 128.153 24.534C128.617 24.79 128.965 25.136 129.197 25.572C129.433 26.004 129.551 26.488 129.551 27.024C129.551 27.56 129.431 28.054 129.191 28.506C128.955 28.954 128.605 29.314 128.141 29.586C127.677 29.858 127.111 29.994 126.443 29.994H125.081V33ZM125.081 29.55L124.493 28.914H126.293C126.717 28.914 127.073 28.838 127.361 28.686C127.653 28.53 127.873 28.31 128.021 28.026C128.169 27.742 128.243 27.408 128.243 27.024C128.243 26.64 128.171 26.314 128.027 26.046C127.883 25.778 127.667 25.576 127.379 25.44C127.091 25.3 126.729 25.23 126.293 25.23H124.493L125.081 24.546V29.55ZM130.899 33V26.628H132.201V28.662L131.853 28.506C131.881 28.246 131.947 27.998 132.051 27.762C132.155 27.526 132.293 27.316 132.465 27.132C132.641 26.944 132.857 26.796 133.113 26.688C133.369 26.58 133.665 26.526 134.001 26.526C134.257 26.526 134.463 26.546 134.619 26.586C134.779 26.626 134.877 26.658 134.913 26.682L134.637 27.906C134.597 27.878 134.515 27.842 134.391 27.798C134.271 27.754 134.103 27.732 133.887 27.732C133.559 27.732 133.287 27.79 133.071 27.906C132.855 28.022 132.683 28.176 132.555 28.368C132.427 28.56 132.335 28.77 132.279 28.998C132.227 29.222 132.201 29.448 132.201 29.676V33H130.899ZM138.922 33.12C138.266 33.12 137.686 32.978 137.182 32.694C136.682 32.41 136.29 32.02 136.006 31.524C135.726 31.024 135.586 30.452 135.586 29.808C135.586 29.168 135.726 28.602 136.006 28.11C136.29 27.614 136.682 27.228 137.182 26.952C137.686 26.672 138.266 26.532 138.922 26.532C139.578 26.532 140.156 26.672 140.656 26.952C141.16 27.228 141.552 27.614 141.832 28.11C142.116 28.602 142.258 29.168 142.258 29.808C142.258 30.452 142.116 31.024 141.832 31.524C141.552 32.02 141.16 32.41 140.656 32.694C140.156 32.978 139.578 33.12 138.922 33.12ZM138.922 32.004C139.322 32.004 139.674 31.914 139.978 31.734C140.282 31.554 140.52 31.3 140.692 30.972C140.864 30.64 140.95 30.252 140.95 29.808C140.95 29.368 140.864 28.986 140.692 28.662C140.52 28.338 140.282 28.088 139.978 27.912C139.674 27.736 139.322 27.648 138.922 27.648C138.526 27.648 138.174 27.736 137.866 27.912C137.562 28.088 137.324 28.338 137.152 28.662C136.98 28.986 136.894 29.368 136.894 29.808C136.894 30.252 136.98 30.64 137.152 30.972C137.324 31.3 137.562 31.554 137.866 31.734C138.174 31.914 138.526 32.004 138.922 32.004ZM146.347 33.126C145.823 33.126 145.341 33 144.901 32.748C144.461 32.492 144.109 32.116 143.845 31.62C143.581 31.124 143.449 30.518 143.449 29.802C143.449 29.102 143.583 28.508 143.851 28.02C144.119 27.532 144.473 27.162 144.913 26.91C145.353 26.654 145.831 26.526 146.347 26.526C146.843 26.526 147.303 26.646 147.727 26.886C148.155 27.126 148.499 27.46 148.759 27.888C149.019 28.312 149.149 28.802 149.149 29.358C149.149 29.374 149.149 29.39 149.149 29.406C149.149 29.418 149.149 29.43 149.149 29.442L148.393 29.466C148.393 29.454 148.393 29.442 148.393 29.43C148.393 29.414 148.393 29.4 148.393 29.388C148.393 29.056 148.309 28.762 148.141 28.506C147.973 28.246 147.751 28.042 147.475 27.894C147.203 27.742 146.913 27.666 146.605 27.666C146.089 27.666 145.657 27.84 145.309 28.188C144.961 28.532 144.787 29.07 144.787 29.802C144.787 30.53 144.961 31.07 145.309 31.422C145.661 31.77 146.093 31.944 146.605 31.944C146.925 31.944 147.221 31.868 147.493 31.716C147.765 31.56 147.983 31.348 148.147 31.08C148.311 30.812 148.393 30.506 148.393 30.162L149.149 30.192C149.149 30.744 149.023 31.242 148.771 31.686C148.523 32.13 148.187 32.482 147.763 32.742C147.343 32.998 146.871 33.126 146.347 33.126ZM148.393 33V23.622H149.701V33H148.393ZM153.694 33.114C153.242 33.114 152.866 33.038 152.566 32.886C152.266 32.73 152.028 32.528 151.852 32.28C151.676 32.028 151.552 31.754 151.48 31.458C151.408 31.158 151.372 30.866 151.372 30.582C151.372 30.434 151.372 30.28 151.372 30.12C151.372 29.956 151.372 29.792 151.372 29.628V26.628H152.68V29.442C152.68 29.586 152.68 29.728 152.68 29.868C152.68 30.004 152.68 30.132 152.68 30.252C152.68 30.56 152.72 30.844 152.8 31.104C152.88 31.36 153.02 31.568 153.22 31.728C153.424 31.884 153.708 31.962 154.072 31.962C154.412 31.962 154.708 31.862 154.96 31.662C155.212 31.458 155.408 31.202 155.548 30.894C155.688 30.582 155.758 30.27 155.758 29.958L156.328 30.264C156.328 30.632 156.266 30.986 156.142 31.326C156.022 31.666 155.848 31.972 155.62 32.244C155.392 32.512 155.114 32.724 154.786 32.88C154.462 33.036 154.098 33.114 153.694 33.114ZM155.758 33V26.628H157.06V33H155.758ZM161.797 33.126C161.157 33.126 160.583 32.992 160.075 32.724C159.571 32.452 159.173 32.066 158.881 31.566C158.593 31.066 158.449 30.478 158.449 29.802C158.449 29.126 158.593 28.544 158.881 28.056C159.173 27.564 159.571 27.186 160.075 26.922C160.583 26.658 161.157 26.526 161.797 26.526C162.281 26.526 162.711 26.6 163.087 26.748C163.463 26.892 163.781 27.084 164.041 27.324C164.301 27.564 164.499 27.828 164.635 28.116C164.771 28.404 164.839 28.692 164.839 28.98C164.839 28.984 164.839 28.99 164.839 28.998C164.839 29.006 164.839 29.014 164.839 29.022H163.549C163.549 29.002 163.547 28.98 163.543 28.956C163.539 28.928 163.535 28.902 163.531 28.878C163.499 28.642 163.407 28.432 163.255 28.248C163.103 28.064 162.903 27.918 162.655 27.81C162.407 27.702 162.117 27.648 161.785 27.648C161.421 27.648 161.085 27.728 160.777 27.888C160.473 28.044 160.229 28.282 160.045 28.602C159.861 28.922 159.769 29.322 159.769 29.802C159.769 30.282 159.859 30.686 160.039 31.014C160.223 31.338 160.467 31.584 160.771 31.752C161.079 31.92 161.417 32.004 161.785 32.004C162.181 32.004 162.505 31.944 162.757 31.824C163.009 31.7 163.199 31.536 163.327 31.332C163.455 31.124 163.529 30.9 163.549 30.66H164.839C164.839 30.948 164.773 31.24 164.641 31.536C164.509 31.828 164.315 32.094 164.059 32.334C163.803 32.574 163.485 32.766 163.105 32.91C162.729 33.054 162.293 33.126 161.797 33.126ZM168.896 33.108C168.684 33.108 168.472 33.086 168.26 33.042C168.052 32.998 167.86 32.918 167.684 32.802C167.512 32.682 167.374 32.512 167.27 32.292C167.166 32.072 167.114 31.784 167.114 31.428C167.114 31.344 167.114 31.256 167.114 31.164C167.114 31.072 167.114 30.978 167.114 30.882V27.708H165.584V26.628H166.388C166.56 26.628 166.694 26.622 166.79 26.61C166.89 26.594 166.962 26.56 167.006 26.508C167.054 26.452 167.084 26.364 167.096 26.244C167.108 26.124 167.114 25.96 167.114 25.752V24.522H168.416V26.628H170.366V27.708H168.416V30.534C168.416 30.614 168.416 30.694 168.416 30.774C168.416 30.854 168.416 30.928 168.416 30.996C168.416 31.316 168.454 31.568 168.53 31.752C168.61 31.936 168.79 32.028 169.07 32.028C169.19 32.028 169.304 32.018 169.412 31.998C169.52 31.978 169.602 31.956 169.658 31.932V32.994C169.586 33.022 169.484 33.048 169.352 33.072C169.22 33.096 169.068 33.108 168.896 33.108ZM174.568 33V24.15H176.998C177.586 24.15 178.118 24.254 178.594 24.462C179.07 24.67 179.476 24.966 179.812 25.35C180.152 25.734 180.414 26.198 180.598 26.742C180.782 27.286 180.874 27.894 180.874 28.566C180.874 29.242 180.782 29.852 180.598 30.396C180.414 30.94 180.152 31.406 179.812 31.794C179.476 32.182 179.07 32.48 178.594 32.688C178.118 32.896 177.586 33 176.998 33H174.568ZM175.876 32.604L175.288 31.92H176.842C177.362 31.92 177.826 31.784 178.234 31.512C178.646 31.24 178.968 30.854 179.2 30.354C179.432 29.85 179.548 29.254 179.548 28.566C179.548 27.874 179.432 27.28 179.2 26.784C178.968 26.284 178.646 25.9 178.234 25.632C177.826 25.364 177.362 25.23 176.842 25.23H175.288L175.876 24.546V32.604ZM182.759 30.27V29.256H187.451L187.271 29.556C187.271 29.532 187.271 29.508 187.271 29.484C187.271 29.456 187.271 29.432 187.271 29.412C187.271 29.088 187.201 28.79 187.061 28.518C186.921 28.242 186.711 28.022 186.431 27.858C186.155 27.69 185.809 27.606 185.393 27.606C184.977 27.606 184.611 27.696 184.295 27.876C183.983 28.052 183.739 28.304 183.563 28.632C183.391 28.956 183.305 29.346 183.305 29.802C183.305 30.266 183.389 30.666 183.557 31.002C183.725 31.334 183.967 31.59 184.283 31.77C184.599 31.95 184.977 32.04 185.417 32.04C185.725 32.04 185.991 32.01 186.215 31.95C186.443 31.886 186.629 31.802 186.773 31.698C186.921 31.594 187.033 31.482 187.109 31.362C187.185 31.238 187.229 31.116 187.241 30.996H188.537C188.513 31.256 188.427 31.514 188.279 31.77C188.135 32.022 187.929 32.252 187.661 32.46C187.397 32.664 187.073 32.828 186.689 32.952C186.309 33.072 185.871 33.132 185.375 33.132C184.711 33.132 184.129 32.992 183.629 32.712C183.129 32.432 182.739 32.044 182.459 31.548C182.179 31.048 182.039 30.476 182.039 29.832C182.039 29.176 182.181 28.6 182.465 28.104C182.749 27.608 183.143 27.222 183.647 26.946C184.151 26.666 184.729 26.526 185.381 26.526C186.045 26.526 186.619 26.666 187.103 26.946C187.591 27.226 187.967 27.612 188.231 28.104C188.495 28.596 188.627 29.162 188.627 29.802C188.627 29.878 188.625 29.966 188.621 30.066C188.617 30.166 188.611 30.234 188.603 30.27H182.759ZM192.587 33.126C192.207 33.126 191.849 33.084 191.513 33C191.177 32.916 190.881 32.794 190.625 32.634C190.373 32.47 190.175 32.268 190.031 32.028C189.891 31.788 189.821 31.51 189.821 31.194C189.821 31.166 189.821 31.138 189.821 31.11C189.821 31.078 189.821 31.052 189.821 31.032H191.117C191.117 31.052 191.117 31.07 191.117 31.086C191.117 31.102 191.117 31.124 191.117 31.152C191.117 31.444 191.251 31.666 191.519 31.818C191.791 31.966 192.159 32.04 192.623 32.04C192.895 32.04 193.143 32.012 193.367 31.956C193.595 31.9 193.775 31.814 193.907 31.698C194.043 31.582 194.111 31.434 194.111 31.254C194.111 30.962 193.967 30.754 193.679 30.63C193.395 30.506 192.963 30.396 192.383 30.3C192.067 30.244 191.761 30.172 191.465 30.084C191.173 29.996 190.909 29.88 190.673 29.736C190.441 29.588 190.255 29.406 190.115 29.19C189.979 28.97 189.911 28.706 189.911 28.398C189.911 27.998 190.031 27.658 190.271 27.378C190.511 27.098 190.835 26.886 191.243 26.742C191.651 26.598 192.101 26.526 192.593 26.526C193.069 26.526 193.509 26.604 193.913 26.76C194.321 26.912 194.649 27.134 194.897 27.426C195.145 27.714 195.269 28.068 195.269 28.488C195.269 28.504 195.269 28.522 195.269 28.542C195.269 28.562 195.269 28.58 195.269 28.596H193.979C193.979 28.58 193.979 28.566 193.979 28.554C193.979 28.542 193.979 28.528 193.979 28.512C193.979 28.304 193.913 28.134 193.781 28.002C193.649 27.87 193.477 27.772 193.265 27.708C193.057 27.64 192.835 27.606 192.599 27.606C192.383 27.606 192.165 27.63 191.945 27.678C191.729 27.722 191.549 27.8 191.405 27.912C191.261 28.02 191.189 28.168 191.189 28.356C191.189 28.548 191.259 28.702 191.399 28.818C191.539 28.93 191.737 29.024 191.993 29.1C192.249 29.172 192.547 29.238 192.887 29.298C193.199 29.354 193.503 29.426 193.799 29.514C194.095 29.598 194.361 29.71 194.597 29.85C194.837 29.99 195.027 30.17 195.167 30.39C195.311 30.61 195.383 30.88 195.383 31.2C195.383 31.532 195.307 31.818 195.155 32.058C195.003 32.298 194.795 32.498 194.531 32.658C194.271 32.814 193.973 32.93 193.637 33.006C193.305 33.086 192.955 33.126 192.587 33.126ZM196.835 33V26.628H198.119V33H196.835ZM197.483 25.308C197.259 25.308 197.065 25.248 196.901 25.128C196.741 25.004 196.661 24.834 196.661 24.618C196.661 24.406 196.741 24.24 196.901 24.12C197.065 23.996 197.259 23.934 197.483 23.934C197.703 23.934 197.893 23.996 198.053 24.12C198.217 24.24 198.299 24.406 198.299 24.618C198.299 24.834 198.217 25.004 198.053 25.128C197.893 25.248 197.703 25.308 197.483 25.308ZM204.034 32.49C204.394 32.522 204.71 32.59 204.982 32.694C205.254 32.794 205.466 32.942 205.618 33.138C205.774 33.338 205.852 33.6 205.852 33.924C205.852 34.288 205.728 34.604 205.48 34.872C205.236 35.144 204.87 35.354 204.382 35.502C203.894 35.654 203.288 35.73 202.564 35.73C201.528 35.73 200.738 35.58 200.194 35.28C199.65 34.98 199.378 34.572 199.378 34.056C199.378 33.9 199.396 33.762 199.432 33.642C199.468 33.522 199.512 33.422 199.564 33.342L200.776 33.522C200.748 33.562 200.72 33.62 200.692 33.696C200.664 33.776 200.65 33.872 200.65 33.984C200.65 34.268 200.824 34.47 201.172 34.59C201.52 34.71 202.002 34.77 202.618 34.77C203.07 34.77 203.444 34.738 203.74 34.674C204.04 34.614 204.264 34.526 204.412 34.41C204.56 34.294 204.634 34.158 204.634 34.002C204.634 33.766 204.532 33.618 204.328 33.558C204.124 33.498 203.878 33.456 203.59 33.432L201.172 33.234C200.752 33.198 200.408 33.072 200.14 32.856C199.876 32.64 199.744 32.368 199.744 32.04C199.744 31.836 199.796 31.646 199.9 31.47C200.004 31.294 200.124 31.146 200.26 31.026C200.4 30.906 200.52 30.832 200.62 30.804L201.472 31.212C201.38 31.224 201.268 31.286 201.136 31.398C201.008 31.506 200.944 31.634 200.944 31.782C200.944 31.918 201 32.03 201.112 32.118C201.228 32.206 201.452 32.264 201.784 32.292L204.034 32.49ZM204.832 26.628H206.014L205.528 29.118C205.44 29.582 205.278 30.002 205.042 30.378C204.81 30.75 204.494 31.044 204.094 31.26C203.698 31.476 203.204 31.584 202.612 31.584C201.996 31.584 201.466 31.478 201.022 31.266C200.578 31.054 200.236 30.76 199.996 30.384C199.76 30.004 199.642 29.572 199.642 29.088C199.642 28.596 199.764 28.156 200.008 27.768C200.256 27.38 200.596 27.076 201.028 26.856C201.464 26.636 201.962 26.526 202.522 26.526C202.994 26.526 203.412 26.606 203.776 26.766C204.144 26.926 204.436 27.13 204.652 27.378C204.868 27.626 204.986 27.884 205.006 28.152L204.634 28.194L204.832 26.628ZM202.606 30.522C202.954 30.522 203.254 30.466 203.506 30.354C203.758 30.238 203.952 30.072 204.088 29.856C204.224 29.636 204.292 29.372 204.292 29.064C204.292 28.76 204.224 28.5 204.088 28.284C203.952 28.064 203.758 27.896 203.506 27.78C203.254 27.66 202.956 27.6 202.612 27.6C202.28 27.6 201.986 27.662 201.73 27.786C201.478 27.906 201.28 28.076 201.136 28.296C200.992 28.516 200.92 28.778 200.92 29.082C200.92 29.386 200.988 29.646 201.124 29.862C201.26 30.074 201.454 30.238 201.706 30.354C201.958 30.466 202.258 30.522 202.606 30.522ZM207.427 30.27V29.256H212.119L211.939 29.556C211.939 29.532 211.939 29.508 211.939 29.484C211.939 29.456 211.939 29.432 211.939 29.412C211.939 29.088 211.869 28.79 211.729 28.518C211.589 28.242 211.379 28.022 211.099 27.858C210.823 27.69 210.477 27.606 210.061 27.606C209.645 27.606 209.279 27.696 208.963 27.876C208.651 28.052 208.407 28.304 208.231 28.632C208.059 28.956 207.973 29.346 207.973 29.802C207.973 30.266 208.057 30.666 208.225 31.002C208.393 31.334 208.635 31.59 208.951 31.77C209.267 31.95 209.645 32.04 210.085 32.04C210.393 32.04 210.659 32.01 210.883 31.95C211.111 31.886 211.297 31.802 211.441 31.698C211.589 31.594 211.701 31.482 211.777 31.362C211.853 31.238 211.897 31.116 211.909 30.996H213.205C213.181 31.256 213.095 31.514 212.947 31.77C212.803 32.022 212.597 32.252 212.329 32.46C212.065 32.664 211.741 32.828 211.357 32.952C210.977 33.072 210.539 33.132 210.043 33.132C209.379 33.132 208.797 32.992 208.297 32.712C207.797 32.432 207.407 32.044 207.127 31.548C206.847 31.048 206.707 30.476 206.707 29.832C206.707 29.176 206.849 28.6 207.133 28.104C207.417 27.608 207.811 27.222 208.315 26.946C208.819 26.666 209.397 26.526 210.049 26.526C210.713 26.526 211.287 26.666 211.771 26.946C212.259 27.226 212.635 27.612 212.899 28.104C213.163 28.596 213.295 29.162 213.295 29.802C213.295 29.878 213.293 29.966 213.289 30.066C213.285 30.166 213.279 30.234 213.271 30.27H207.427ZM214.747 33V26.628H216.049V28.662L215.701 28.506C215.729 28.246 215.795 27.998 215.899 27.762C216.003 27.526 216.141 27.316 216.313 27.132C216.489 26.944 216.705 26.796 216.961 26.688C217.217 26.58 217.513 26.526 217.849 26.526C218.105 26.526 218.311 26.546 218.467 26.586C218.627 26.626 218.725 26.658 218.761 26.682L218.485 27.906C218.445 27.878 218.363 27.842 218.239 27.798C218.119 27.754 217.951 27.732 217.735 27.732C217.407 27.732 217.135 27.79 216.919 27.906C216.703 28.022 216.531 28.176 216.403 28.368C216.275 28.56 216.183 28.77 216.127 28.998C216.075 29.222 216.049 29.448 216.049 29.676V33H214.747Z" fill="white" fill-opacity="0.8"/>
<path d="M15.533 20.815V19.632H21.007L20.797 19.982C20.797 19.954 20.797 19.926 20.797 19.898C20.797 19.8653 20.797 19.8373 20.797 19.814C20.797 19.436 20.7153 19.0883 20.552 18.771C20.3887 18.449 20.1437 18.1923 19.817 18.001C19.495 17.805 19.0913 17.707 18.606 17.707C18.1207 17.707 17.6937 17.812 17.325 18.022C16.961 18.2273 16.6763 18.5213 16.471 18.904C16.2703 19.282 16.17 19.737 16.17 20.269C16.17 20.8103 16.268 21.277 16.464 21.669C16.66 22.0563 16.9423 22.355 17.311 22.565C17.6797 22.775 18.1207 22.88 18.634 22.88C18.9933 22.88 19.3037 22.845 19.565 22.775C19.831 22.7003 20.048 22.6023 20.216 22.481C20.3887 22.3597 20.5193 22.229 20.608 22.089C20.6967 21.9443 20.748 21.802 20.762 21.662H22.274C22.246 21.9653 22.1457 22.2663 21.973 22.565C21.805 22.859 21.5647 23.1273 21.252 23.37C20.944 23.608 20.566 23.7993 20.118 23.944C19.6747 24.084 19.1637 24.154 18.585 24.154C17.8103 24.154 17.1313 23.9907 16.548 23.664C15.9647 23.3373 15.5097 22.8847 15.183 22.306C14.8563 21.7227 14.693 21.0553 14.693 20.304C14.693 19.5387 14.8587 18.8667 15.19 18.288C15.5213 17.7093 15.981 17.259 16.569 16.937C17.157 16.6103 17.8313 16.447 18.592 16.447C19.3667 16.447 20.0363 16.6103 20.601 16.937C21.1703 17.2637 21.609 17.714 21.917 18.288C22.225 18.862 22.379 19.5223 22.379 20.269C22.379 20.3577 22.3767 20.4603 22.372 20.577C22.3673 20.6937 22.3603 20.773 22.351 20.815H15.533ZM27.6771 24.147C26.9305 24.147 26.2608 23.9907 25.6681 23.678C25.0801 23.3607 24.6158 22.9103 24.2751 22.327C23.9391 21.7437 23.7711 21.0577 23.7711 20.269C23.7711 19.4803 23.9391 18.8013 24.2751 18.232C24.6158 17.658 25.0801 17.217 25.6681 16.909C26.2608 16.601 26.9305 16.447 27.6771 16.447C28.2418 16.447 28.7435 16.5333 29.1821 16.706C29.6208 16.874 29.9918 17.098 30.2951 17.378C30.5985 17.658 30.8295 17.966 30.9881 18.302C31.1468 18.638 31.2261 18.974 31.2261 19.31C31.2261 19.3147 31.2261 19.3217 31.2261 19.331C31.2261 19.3403 31.2261 19.3497 31.2261 19.359H29.7211C29.7211 19.3357 29.7188 19.31 29.7141 19.282C29.7095 19.2493 29.7048 19.219 29.7001 19.191C29.6628 18.9157 29.5555 18.6707 29.3781 18.456C29.2008 18.2413 28.9675 18.071 28.6781 17.945C28.3888 17.819 28.0505 17.756 27.6631 17.756C27.2385 17.756 26.8465 17.8493 26.4871 18.036C26.1325 18.218 25.8478 18.4957 25.6331 18.869C25.4185 19.2423 25.3111 19.709 25.3111 20.269C25.3111 20.829 25.4161 21.3003 25.6261 21.683C25.8408 22.061 26.1255 22.348 26.4801 22.544C26.8395 22.74 27.2338 22.838 27.6631 22.838C28.1251 22.838 28.5031 22.768 28.7971 22.628C29.0911 22.4833 29.3128 22.292 29.4621 22.054C29.6115 21.8113 29.6978 21.55 29.7211 21.27H31.2261C31.2261 21.606 31.1491 21.9467 30.9951 22.292C30.8411 22.6327 30.6148 22.943 30.3161 23.223C30.0175 23.503 29.6465 23.727 29.2031 23.895C28.7645 24.063 28.2558 24.147 27.6771 24.147Z" fill="#010101"/>
</svg>
