<svg width="22" height="22" viewBox="0 0 22 22" fill="none" xmlns="http://www.w3.org/2000/svg">
<path d="M13.1111 5.72217H19.1404C19.5877 5.72217 19.8114 5.72217 19.9422 5.81621C20.0563 5.89826 20.1306 6.02456 20.1469 6.16416C20.1656 6.32417 20.057 6.51967 19.8398 6.91068L18.3702 9.55588C18.2914 9.69768 18.252 9.76858 18.2366 9.84366C18.2229 9.91012 18.2229 9.97866 18.2366 10.0451C18.252 10.1202 18.2914 10.1911 18.3702 10.3329L19.8398 12.9781C20.057 13.3691 20.1656 13.5646 20.1469 13.7246C20.1306 13.8642 20.0563 13.9905 19.9422 14.0726C19.8114 14.1666 19.5877 14.1666 19.1404 14.1666H11.5445C10.9844 14.1666 10.7044 14.1666 10.4905 14.0576C10.3023 13.9617 10.1493 13.8088 10.0535 13.6206C9.94448 13.4067 9.94448 13.1267 9.94448 12.5666V9.94439M6.25004 20.5002L2.02782 3.61133M3.6112 9.94444H11.5112C12.0712 9.94444 12.3512 9.94444 12.5651 9.83545C12.7533 9.73958 12.9063 9.5866 13.0022 9.39844C13.1112 9.18452 13.1112 8.9045 13.1112 8.34445V3.1C13.1112 2.53995 13.1112 2.25992 13.0022 2.04601C12.9063 1.85785 12.7533 1.70487 12.5651 1.60899C12.3512 1.5 12.0712 1.5 11.5112 1.5H3.54927C2.85075 1.5 2.50149 1.5 2.2626 1.64474C2.05323 1.77159 1.89767 1.97084 1.82538 2.20472C1.74291 2.47158 1.82762 2.81041 1.99704 3.48807L3.6112 9.94444Z" stroke="white" stroke-width="2" stroke-linecap="round" stroke-linejoin="round"/>
</svg>
