<svg width="22" height="22" viewBox="0 0 22 22" fill="none" xmlns="http://www.w3.org/2000/svg">
<mask id="mask0_1202_146" style="mask-type:alpha" maskUnits="userSpaceOnUse" x="5" y="4" width="13" height="13">
<path d="M5 4H18V17H5V4Z" fill="white"/>
</mask>
<g mask="url(#mask0_1202_146)">
<path fill-rule="evenodd" clip-rule="evenodd" d="M12.3121 17V12.0217C12.3121 11.4884 12.4561 11.079 12.7431 10.791C13.0276 10.5056 13.3858 10.3611 13.8167 10.3611C14.2594 10.3611 14.6151 10.5209 14.8854 10.838C15.1565 11.1559 15.2921 11.6422 15.2921 12.2977V17H18V12.0217C18 10.8021 17.7013 9.85175 17.1046 9.1706C16.5088 8.4903 15.723 8.1493 14.7498 8.1493C13.7582 8.1493 12.9456 8.63474 12.3121 9.60903L12.2226 8.42535H9.56067L9.60418 10.3611V17H12.3121ZM5.27113 17H7.97908V8.42535H5.27113V17ZM6.61088 7.04254H6.59582C6.12385 7.04254 5.74142 6.89639 5.44519 6.6041C5.14812 6.31181 5 5.95115 5 5.52041C5 5.08027 5.15063 4.7179 5.45105 4.42989C5.75397 4.14358 6.14979 4 6.641 4C7.12301 4 7.50795 4.14358 7.8 4.42989C8.08954 4.7179 8.24017 5.08027 8.25021 5.52041C8.25021 5.95115 8.10042 6.31181 7.8 6.6041C7.49874 6.89639 7.10126 7.04254 6.61088 7.04254Z" fill="#3866FB"/>
</g>
</svg>
