<svg width="13" height="14" viewBox="0 0 13 14" fill="none" xmlns="http://www.w3.org/2000/svg">
<g clip-path="url(#clip0_1202_134)">
<path fill-rule="evenodd" clip-rule="evenodd" d="M6.0084 1.1472C6.30445 0.950933 6.69555 0.950933 6.9916 1.1472L12.2451 4.61846C12.7182 4.93142 13 5.45126 13 6.00611V12.4299C13 12.8977 12.6089 13.2786 12.1271 13.2786H0.87395C0.391092 13.2786 0 12.8977 0 12.4299V6.00611C0 5.45126 0.284033 4.93142 0.755966 4.61846L6.0084 1.1472ZM11.1417 5.68498H1.85813C1.49325 5.68498 1.33813 6.13692 1.62981 6.35016L5.57678 9.2252C6.12409 9.6241 6.87678 9.6241 7.42409 9.2252L11.37 6.35016C11.6627 6.13692 11.5076 5.68498 11.1417 5.68498Z" fill="#3866FB"/>
</g>
<defs>
<clipPath id="clip0_1202_134">
<rect width="13" height="13" fill="white" transform="translate(0 0.5)"/>
</clipPath>
</defs>
</svg>
