<svg width="22" height="22" viewBox="0 0 22 22" fill="none" xmlns="http://www.w3.org/2000/svg">
<mask id="mask0_1202_290" style="mask-type:alpha" maskUnits="userSpaceOnUse" x="4" y="5" width="16" height="13">
<path d="M4 5H19.04V17.2208H4V5Z" fill="white"/>
</mask>
<g mask="url(#mask0_1202_290)">
<path fill-rule="evenodd" clip-rule="evenodd" d="M19.0401 6.44441C18.6217 7.07202 18.1133 7.60545 17.5073 8.04636V8.44643C17.5073 9.27157 17.3906 10.095 17.1531 10.9185C16.9131 11.742 16.5488 12.5355 16.0562 13.2948C15.5612 14.0549 14.9719 14.7258 14.2893 15.3059C13.6041 15.886 12.7832 16.3503 11.8263 16.6978C10.8662 17.0471 9.8385 17.2213 8.73415 17.2213C6.87799 17.2213 5.29939 16.802 4 15.9669C4.24504 16.0027 4.48675 16.0186 4.73179 16.0186C6.06702 16.0186 7.34141 15.531 8.56078 14.5566C7.89984 14.5458 7.30473 14.3391 6.77548 13.9382C6.24955 13.539 5.88532 13.0314 5.68862 12.4154C5.88532 12.4504 6.07786 12.4679 6.26456 12.4679C6.54127 12.4679 6.81465 12.4338 7.08136 12.3638C6.37457 12.2246 5.78447 11.8703 5.31439 11.3011C4.84431 10.7335 4.6101 10.0759 4.6101 9.33491V9.29991C5.05018 9.54411 5.51443 9.6708 6.00201 9.6833C5.08435 9.06737 4.62677 8.21472 4.62677 7.12286C4.62677 6.61278 4.76596 6.11436 5.04518 5.62677C5.82115 6.5661 6.75881 7.3129 7.85566 7.86383C8.95168 8.41475 10.1344 8.72481 11.3979 8.79482C11.3513 8.59812 11.3296 8.35974 11.3296 8.08136C11.3296 7.23455 11.6271 6.50859 12.2247 5.90516C12.8223 5.30172 13.5525 5 14.411 5C15.2928 5 16.0462 5.32506 16.673 5.97517C17.3581 5.83514 18.0074 5.58593 18.6217 5.22671C18.3925 5.97017 17.9391 6.53776 17.2656 6.932C17.8582 6.86282 18.4483 6.70029 19.0401 6.44441Z" fill="#3866FB"/>
</g>
</svg>
