<svg width="2649" height="7033" viewBox="0 0 2649 7033" fill="none" xmlns="http://www.w3.org/2000/svg">
<g clip-path="url(#clip0_1_4010)">
<g opacity="0.7" filter="url(#filter0_f_1_4010)">
<path d="M1456.09 6055.37C1408.84 5934.8 1393.93 5666.66 1508.36 5621.85C1622.78 5577.04 1823.22 5772.53 1870.46 5893.11C1917.7 6013.68 1863.24 6147.75 1748.81 6192.56C1634.39 6237.37 1503.33 6175.95 1456.09 6055.37Z" fill="#831ED2"/>
</g>
<g opacity="0.5" filter="url(#filter1_f_1_4010)">
<path d="M631.668 6240.88C592.723 6141.48 558.46 5929.04 620.623 5904.7C682.786 5880.35 817.834 6053.33 856.78 6152.72C895.725 6252.12 876.903 6352.43 814.74 6376.77C752.578 6401.12 670.613 6340.27 631.668 6240.88Z" fill="#831ED2"/>
</g>
<g opacity="0.7" filter="url(#filter2_f_1_4010)">
<path d="M1404.78 3748.86C1357.53 3628.28 1342.62 3360.14 1457.05 3315.33C1571.47 3270.53 1771.91 3466.02 1819.15 3586.59C1866.39 3707.17 1811.93 3841.24 1697.5 3886.04C1583.08 3930.85 1452.02 3869.43 1404.78 3748.86Z" fill="#831ED2"/>
</g>
<g opacity="0.5" filter="url(#filter3_f_1_4010)">
<path d="M734.287 3302.36C695.341 3202.96 661.079 2990.52 723.242 2966.18C785.405 2941.84 920.453 3114.81 959.398 3214.21C998.344 3313.61 979.522 3413.92 917.359 3438.26C855.196 3462.6 773.232 3401.76 734.287 3302.36Z" fill="#831ED2"/>
</g>
<g opacity="0.7" filter="url(#filter4_f_1_4010)">
<path d="M458.313 4852.37C411.07 4731.8 396.158 4463.66 510.584 4418.85C625.01 4374.04 825.443 4569.53 872.686 4690.11C919.929 4810.68 865.466 4944.75 751.041 4989.56C636.615 5034.37 505.556 4972.95 458.313 4852.37Z" fill="#831ED2"/>
</g>
<g opacity="0.5" filter="url(#filter5_f_1_4010)">
<path d="M1446.67 4923.36C1407.72 4823.96 1373.46 4611.52 1435.62 4587.18C1497.79 4562.84 1632.83 4735.81 1671.78 4835.21C1710.73 4934.61 1691.9 5034.92 1629.74 5059.26C1567.58 5083.6 1485.61 5022.76 1446.67 4923.36Z" fill="#831ED2"/>
</g>
<g opacity="0.7" filter="url(#filter6_f_1_4010)">
<path d="M770.405 2135.95C723.162 2015.37 708.251 1747.23 822.677 1702.43C937.103 1657.62 1137.54 1853.11 1184.78 1973.68C1232.02 2094.26 1177.56 2228.33 1063.13 2273.14C948.707 2317.94 817.648 2256.52 770.405 2135.95Z" fill="#831ED2"/>
</g>
<g opacity="0.5" filter="url(#filter7_f_1_4010)">
<path d="M806.843 2040.47C767.898 1941.08 733.635 1728.64 795.798 1704.3C857.961 1679.95 993.01 1852.93 1031.96 1952.32C1070.9 2051.72 1052.08 2152.03 989.916 2176.37C927.753 2200.71 845.789 2139.87 806.843 2040.47Z" fill="#831ED2"/>
</g>
<g opacity="0.7" filter="url(#filter8_f_1_4010)">
<path d="M458.405 799.948C411.162 679.374 396.251 411.235 510.677 366.427C625.103 321.619 825.535 517.111 872.778 637.685C920.021 758.259 865.559 892.328 751.133 937.136C636.707 981.944 505.648 920.523 458.405 799.948Z" fill="#831ED2"/>
</g>
<g opacity="0.5" filter="url(#filter9_f_1_4010)">
<path d="M1803.67 1190.36C1764.72 1090.96 1730.46 878.524 1792.62 854.182C1854.79 829.84 1989.83 1002.81 2028.78 1102.21C2067.73 1201.61 2048.9 1301.92 1986.74 1326.26C1924.58 1350.6 1842.61 1289.76 1803.67 1190.36Z" fill="#831ED2"/>
</g>
</g>
<defs>
<filter id="filter0_f_1_4010" x="1120.77" y="5315.3" width="1066.72" height="1191.91" filterUnits="userSpaceOnUse" color-interpolation-filters="sRGB">
<feFlood flood-opacity="0" result="BackgroundImageFix"/>
<feBlend mode="normal" in="SourceGraphic" in2="BackgroundImageFix" result="shape"/>
<feGaussianBlur stdDeviation="150" result="effect1_foregroundBlur_1_4010"/>
</filter>
<filter id="filter1_f_1_4010" x="286.439" y="5602.38" width="890.623" height="1079.76" filterUnits="userSpaceOnUse" color-interpolation-filters="sRGB">
<feFlood flood-opacity="0" result="BackgroundImageFix"/>
<feBlend mode="normal" in="SourceGraphic" in2="BackgroundImageFix" result="shape"/>
<feGaussianBlur stdDeviation="150" result="effect1_foregroundBlur_1_4010"/>
</filter>
<filter id="filter2_f_1_4010" x="1069.46" y="3008.79" width="1066.72" height="1191.91" filterUnits="userSpaceOnUse" color-interpolation-filters="sRGB">
<feFlood flood-opacity="0" result="BackgroundImageFix"/>
<feBlend mode="normal" in="SourceGraphic" in2="BackgroundImageFix" result="shape"/>
<feGaussianBlur stdDeviation="150" result="effect1_foregroundBlur_1_4010"/>
</filter>
<filter id="filter3_f_1_4010" x="389.058" y="2663.86" width="890.623" height="1079.76" filterUnits="userSpaceOnUse" color-interpolation-filters="sRGB">
<feFlood flood-opacity="0" result="BackgroundImageFix"/>
<feBlend mode="normal" in="SourceGraphic" in2="BackgroundImageFix" result="shape"/>
<feGaussianBlur stdDeviation="150" result="effect1_foregroundBlur_1_4010"/>
</filter>
<filter id="filter4_f_1_4010" x="122.993" y="4112.3" width="1066.72" height="1191.91" filterUnits="userSpaceOnUse" color-interpolation-filters="sRGB">
<feFlood flood-opacity="0" result="BackgroundImageFix"/>
<feBlend mode="normal" in="SourceGraphic" in2="BackgroundImageFix" result="shape"/>
<feGaussianBlur stdDeviation="150" result="effect1_foregroundBlur_1_4010"/>
</filter>
<filter id="filter5_f_1_4010" x="1101.44" y="4284.86" width="890.623" height="1079.76" filterUnits="userSpaceOnUse" color-interpolation-filters="sRGB">
<feFlood flood-opacity="0" result="BackgroundImageFix"/>
<feBlend mode="normal" in="SourceGraphic" in2="BackgroundImageFix" result="shape"/>
<feGaussianBlur stdDeviation="150" result="effect1_foregroundBlur_1_4010"/>
</filter>
<filter id="filter6_f_1_4010" x="435.086" y="1395.88" width="1066.72" height="1191.91" filterUnits="userSpaceOnUse" color-interpolation-filters="sRGB">
<feFlood flood-opacity="0" result="BackgroundImageFix"/>
<feBlend mode="normal" in="SourceGraphic" in2="BackgroundImageFix" result="shape"/>
<feGaussianBlur stdDeviation="150" result="effect1_foregroundBlur_1_4010"/>
</filter>
<filter id="filter7_f_1_4010" x="461.615" y="1401.97" width="890.623" height="1079.76" filterUnits="userSpaceOnUse" color-interpolation-filters="sRGB">
<feFlood flood-opacity="0" result="BackgroundImageFix"/>
<feBlend mode="normal" in="SourceGraphic" in2="BackgroundImageFix" result="shape"/>
<feGaussianBlur stdDeviation="150" result="effect1_foregroundBlur_1_4010"/>
</filter>
<filter id="filter8_f_1_4010" x="123.086" y="59.8784" width="1066.72" height="1191.91" filterUnits="userSpaceOnUse" color-interpolation-filters="sRGB">
<feFlood flood-opacity="0" result="BackgroundImageFix"/>
<feBlend mode="normal" in="SourceGraphic" in2="BackgroundImageFix" result="shape"/>
<feGaussianBlur stdDeviation="150" result="effect1_foregroundBlur_1_4010"/>
</filter>
<filter id="filter9_f_1_4010" x="1458.44" y="551.862" width="890.623" height="1079.76" filterUnits="userSpaceOnUse" color-interpolation-filters="sRGB">
<feFlood flood-opacity="0" result="BackgroundImageFix"/>
<feBlend mode="normal" in="SourceGraphic" in2="BackgroundImageFix" result="shape"/>
<feGaussianBlur stdDeviation="150" result="effect1_foregroundBlur_1_4010"/>
</filter>
<clipPath id="clip0_1_4010">
<rect width="2649" height="7033" rx="5" fill="white"/>
</clipPath>
</defs>
</svg>
