<svg width="13" height="14" viewBox="0 0 13 14" fill="none" xmlns="http://www.w3.org/2000/svg">
<g clip-path="url(#clip0_1123_68)">
<path fill-rule="evenodd" clip-rule="evenodd" d="M6.0084 0.6472C6.30445 0.450933 6.69555 0.450933 6.9916 0.6472L12.2451 4.11846C12.7182 4.43142 13 4.95126 13 5.50611V11.9299C13 12.3977 12.6089 12.7786 12.1271 12.7786H0.87395C0.391092 12.7786 0 12.3977 0 11.9299V5.50611C0 4.95126 0.284033 4.43142 0.755966 4.11846L6.0084 0.6472ZM11.1417 5.18498H1.85813C1.49325 5.18498 1.33813 5.63692 1.62981 5.85016L5.57678 8.7252C6.12409 9.1241 6.87678 9.1241 7.42409 8.7252L11.37 5.85016C11.6627 5.63692 11.5076 5.18498 11.1417 5.18498Z" fill="white"/>
</g>
<defs>
<clipPath id="clip0_1123_68">
<rect width="13" height="13" fill="white" transform="translate(0 0.5)"/>
</clipPath>
</defs>
</svg>
