<svg xmlns="http://www.w3.org/2000/svg" viewBox="0 0 52 51" fill="currentColor"><path d="M25.0249 1.25652C25.261 0.218976 26.739 0.218976 26.9751 1.25652L29.3202 11.5641C29.4938 12.3272 30.4371 12.6042 30.9956 12.0561L38.5412 4.65264C39.3007 3.90742 40.5441 4.70652 40.1818 5.70697L36.5819 15.6462C36.3154 16.3819 36.9592 17.1249 37.7254 16.9658L48.0758 14.8171C49.1176 14.6008 49.7316 15.9453 48.8859 16.591L40.4839 23.0062C39.862 23.4811 40.0019 24.4541 40.7324 24.7346L50.6014 28.5227C51.5948 28.904 51.3844 30.3671 50.3239 30.4531L39.7874 31.3074C39.0074 31.3706 38.599 32.2649 39.062 32.8958L45.3163 41.4181C45.9458 42.276 44.9779 43.393 44.0392 42.892L34.7135 37.9142C34.0231 37.5458 33.1961 38.0772 33.2445 38.8583L33.8984 49.4091C33.9642 50.4711 32.546 50.8875 32.0272 49.9585L26.8731 40.7291C26.4915 40.0459 25.5085 40.0459 25.1269 40.7291L19.9728 49.9585C19.454 50.8875 18.0358 50.4711 18.1016 49.4091L18.7555 38.8583C18.8039 38.0772 17.9769 37.5458 17.2865 37.9142L7.9608 42.892C7.0221 43.393 6.05418 42.276 6.68372 41.4181L12.938 32.8958C13.401 32.2649 12.9926 31.3706 12.2126 31.3074L1.67614 30.4531C0.615564 30.3671 0.405214 28.904 1.3986 28.5227L11.2676 24.7346C11.9981 24.4541 12.138 23.4811 11.5161 23.0062L3.11412 16.591C2.2684 15.9453 2.88241 14.6008 3.92425 14.8171L14.2746 16.9658C15.0408 17.1249 15.6846 16.3819 15.4181 15.6462L11.8182 5.70698C11.4559 4.70652 12.6993 3.90742 13.4588 4.65264L21.0044 12.0561C21.5629 12.6042 22.5062 12.3272 22.6798 11.5641L25.0249 1.25652Z" fill="#FFFFFF"/></svg>