<svg width="482" height="384" viewBox="0 0 482 384" fill="none" xmlns="http://www.w3.org/2000/svg">
<g style="mix-blend-mode:soft-light" opacity="0.6">
<path fill-rule="evenodd" clip-rule="evenodd" d="M396.221 0H481.707V85.486C434.495 85.486 396.221 47.2126 396.221 0ZM396.221 99.1196H481.707V184.606H396.221V99.1196ZM481.707 283.951C481.707 236.738 443.434 198.465 396.221 198.465V283.951H481.707ZM438.964 297.584C462.571 297.584 481.707 316.721 481.707 340.327C481.707 363.933 462.571 383.07 438.964 383.07C415.358 383.07 396.221 363.933 396.221 340.327C396.221 316.721 415.358 297.584 438.964 297.584ZM382.652 42.743C382.652 19.1367 363.515 0 339.909 0C316.303 0 297.166 19.1367 297.166 42.743C297.166 66.3493 316.303 85.486 339.909 85.486C363.515 85.486 382.652 66.3493 382.652 42.743ZM297.166 99.1192C344.379 99.1192 382.652 137.393 382.652 184.605H297.166V99.1192ZM297.166 198.465C297.166 245.678 335.44 283.951 382.652 283.951V198.465H297.166ZM382.652 383.07C335.44 383.07 297.166 344.797 297.166 297.584H382.652V383.07ZM283.597 42.743C283.597 19.1367 264.46 0 240.854 0H198.111V85.486H240.854C264.46 85.486 283.597 66.3493 283.597 42.743ZM240.854 99.1192C264.46 99.1192 283.597 118.256 283.597 141.862C283.597 165.469 264.46 184.605 240.854 184.605C217.248 184.605 198.111 165.469 198.111 141.862C198.111 118.256 217.248 99.1192 240.854 99.1192ZM198.111 198.465V283.951H283.597V198.465H198.111ZM240.854 297.584H283.597V383.07H240.854C217.248 383.07 198.111 363.933 198.111 340.327C198.111 316.721 217.248 297.584 240.854 297.584ZM184.541 0H99.0554V85.486H184.541V0ZM99.0553 99.1192H184.541C184.541 146.332 146.268 184.605 99.0553 184.605V99.1192ZM184.541 198.239H99.0553C99.0553 245.451 137.329 283.725 184.541 283.725V198.239ZM42.743 0H85.486V85.486H42.743C19.1367 85.486 0 66.3493 0 42.743C0 19.1367 19.1367 0 42.743 0ZM85.486 141.862C85.486 118.256 66.3493 99.1192 42.743 99.1192C19.1367 99.1192 0 118.256 0 141.862C0 165.469 19.1367 184.605 42.743 184.605C66.3493 184.605 85.486 165.469 85.486 141.862ZM42.743 198.465C66.3493 198.465 85.486 217.602 85.486 241.208C85.486 264.814 66.3493 283.951 42.743 283.951C19.1367 283.951 0 264.814 0 241.208C0 217.602 19.1367 198.465 42.743 198.465Z" fill="url(#paint0_linear_6009_4177)"/>
</g>
<defs>
<linearGradient id="paint0_linear_6009_4177" x1="789.123" y1="-239.315" x2="42.7432" y2="283.823" gradientUnits="userSpaceOnUse">
<stop stop-color="white"/>
<stop offset="1" stop-color="white" stop-opacity="0"/>
</linearGradient>
</defs>
</svg>
