<svg width="64" height="63" viewBox="0 0 64 63" fill="none" xmlns="http://www.w3.org/2000/svg">
<path d="M30.7999 1.54648C31.0905 0.269501 32.9096 0.269501 33.2001 1.54648L36.0864 14.2327C36.3001 15.1719 37.4611 15.5129 38.1485 14.8383L47.4353 5.72632C48.3701 4.80912 49.9005 5.79263 49.4545 7.02395L45.0239 19.2569C44.6959 20.1623 45.4883 21.0768 46.4313 20.881L59.1702 18.2364C60.4525 17.9702 61.2081 19.625 60.1673 20.4197L49.8264 28.3153C49.0609 28.8998 49.2331 30.0973 50.1322 30.4426L62.2787 35.1049C63.5013 35.5741 63.2424 37.3749 61.9371 37.4807L48.9691 38.5322C48.0091 38.61 47.5065 39.7106 48.0763 40.4871L55.7739 50.9761C56.5487 52.032 55.3574 53.4068 54.2021 52.7901L42.7243 46.6636C41.8746 46.2102 40.8568 46.8642 40.9163 47.8256L41.7211 60.8112C41.8021 62.1183 40.0566 62.6308 39.4181 61.4874L33.0746 50.1281C32.6049 49.2872 31.3951 49.2872 30.9254 50.1281L24.5819 61.4874C23.9434 62.6308 22.1979 62.1183 22.2789 60.8112L23.0837 47.8256C23.1433 46.8642 22.1254 46.2102 21.2757 46.6636L9.79793 52.7901C8.64261 53.4068 7.45132 52.032 8.22614 50.9761L15.9237 40.4871C16.4936 39.7106 15.9909 38.61 15.0309 38.5322L2.06297 37.4807C0.757643 37.3749 0.49875 35.5741 1.72138 35.1049L13.8678 30.4426C14.7669 30.0973 14.9391 28.8998 14.1737 28.3153L3.83279 20.4197C2.7919 19.625 3.54761 17.9702 4.82987 18.2364L17.5688 20.881C18.5118 21.0768 19.3041 20.1623 18.9761 19.2569L14.5455 7.02397C14.0996 5.79263 15.6299 4.80912 16.5647 5.72632L25.8516 14.8383C26.539 15.5129 27.7 15.1719 27.9136 14.2327L30.7999 1.54648Z" fill="#FF9B04"/>
</svg>
